<mxfile host="app.diagrams.net" modified="2024-03-25T07:56:41.803Z" agent="Mozilla/5.0 (X11; Linux x86_64) AppleWebKit/537.36 (KHTML, like Gecko) Chrome/120.0.0.0 Safari/537.36" version="24.1.0" etag="FaURcjQxr-Y8VB81hFoQ" type="github">
  <diagram name="Page-1" id="yXP7Zy7yv-b1Nyzx38sa">
    <mxGraphModel>
      <root>
        <mxCell id="0" />
        <mxCell id="1" parent="0" />
      </root>
    </mxGraphModel>
  </diagram>
</mxfile>
